<?xml version="1.0" encoding="UTF-8"?>
<svg width="364px" height="121px" viewBox="0 0 364 121" version="1.1" xmlns="http://www.w3.org/2000/svg" xmlns:xlink="http://www.w3.org/1999/xlink">
    <!-- Generator: Sketch 46.1 (44463) - http://www.bohemiancoding.com/sketch -->
    <title>Group 4</title>
    <desc>Created with Sketch.</desc>
    <defs></defs>
    <g id="Page-1" stroke="none" stroke-width="1" fill="none" fill-rule="evenodd">
        <g id="Concept-5---ribbon-style" transform="translate(-198.000000, -526.000000)">
            <g id="Group-4" transform="translate(198.000000, 526.000000)">
                <path d="M274.896,41.008 L281.592,41.008 C282.712006,41.008 283.791995,41.1799983 284.832,41.524 C285.872005,41.8680017 286.791996,42.3919965 287.592,43.096 C288.392004,43.8000035 289.031998,44.6839947 289.512,45.748 C289.992002,46.8120053 290.232,48.0639928 290.232,49.504 C290.232,50.9600073 289.956003,52.2199947 289.404,53.284 C288.851997,54.3480053 288.140004,55.2279965 287.268,55.924 C286.395996,56.6200035 285.428005,57.1399983 284.364,57.484 C283.299995,57.8280017 282.256005,58 281.232,58 L274.896,58 L274.896,41.008 Z M280.176,55.264 C281.120005,55.264 282.011996,55.1560011 282.852,54.94 C283.692004,54.7239989 284.423997,54.3880023 285.048,53.932 C285.672003,53.4759977 286.163998,52.8840036 286.524,52.156 C286.884002,51.4279964 287.064,50.5440052 287.064,49.504 C287.064,48.4799949 286.904002,47.6000037 286.584,46.864 C286.263998,46.1279963 285.820003,45.5320023 285.252,45.076 C284.683997,44.6199977 284.012004,44.2840011 283.236,44.068 C282.459996,43.8519989 281.608005,43.744 280.68,43.744 L277.92,43.744 L277.92,55.264 L280.176,55.264 Z M305.04,41.008 L308.064,41.008 L308.064,58 L305.04,58 L305.04,41.008 Z M321.816,41.008 L325.296,41.008 L329.928,53.848 L334.704,41.008 L337.968,41.008 L331.104,58 L328.488,58 L321.816,41.008 Z M351.792,41.008 L363.048,41.008 L363.048,43.744 L354.816,43.744 L354.816,47.92 L362.616,47.92 L362.616,50.656 L354.816,50.656 L354.816,55.264 L363.48,55.264 L363.48,58 L351.792,58 L351.792,41.008 Z" id="DIVE" fill="#1B2327"></path>
                <path d="M10.224,44.656 C9.9039984,44.1919977 9.47600268,43.8520011 8.94,43.636 C8.40399732,43.4199989 7.84000296,43.312 7.248,43.312 C6.89599824,43.312 6.55600164,43.3519996 6.228,43.432 C5.89999836,43.5120004 5.60400132,43.6399991 5.34,43.816 C5.07599868,43.9920009 4.8640008,44.2199986 4.704,44.5 C4.5439992,44.7800014 4.464,45.1119981 4.464,45.496 C4.464,46.0720029 4.663998,46.5119985 5.064,46.816 C5.464002,47.1200015 5.95999704,47.3839989 6.552,47.608 C7.14400296,47.8320011 7.79199648,48.047999 8.496,48.256 C9.20000352,48.464001 9.84799704,48.7519982 10.44,49.12 C11.032003,49.4880018 11.527998,49.975997 11.928,50.584 C12.328002,51.192003 12.528,51.999995 12.528,53.008 C12.528,53.9200046 12.3600017,54.7159966 12.024,55.396 C11.6879983,56.0760034 11.2360028,56.6399978 10.668,57.088 C10.0999972,57.5360022 9.44000376,57.8719989 8.688,58.096 C7.93599624,58.3200011 7.14400416,58.432 6.312,58.432 C5.25599472,58.432 4.24000488,58.2560018 3.264,57.904 C2.28799512,57.5519982 1.44800352,56.9600042 0.744,56.128 L3.024,53.92 C3.39200184,54.4800028 3.875997,54.9159984 4.476,55.228 C5.076003,55.5400016 5.71199664,55.696 6.384,55.696 C6.73600176,55.696 7.08799824,55.6480005 7.44,55.552 C7.79200176,55.4559995 8.11199856,55.312001 8.4,55.12 C8.68800144,54.927999 8.91999912,54.6840015 9.096,54.388 C9.27200088,54.0919985 9.36,53.7520019 9.36,53.368 C9.36,52.7439969 9.160002,52.2640017 8.76,51.928 C8.359998,51.5919983 7.86400296,51.3080012 7.272,51.076 C6.67999704,50.8439988 6.03200352,50.624001 5.328,50.416 C4.62399648,50.207999 3.97600296,49.9240018 3.384,49.564 C2.79199704,49.2039982 2.296002,48.724003 1.896,48.124 C1.495998,47.523997 1.296,46.720005 1.296,45.712 C1.296,44.8319956 1.4759982,44.0720032 1.836,43.432 C2.1960018,42.7919968 2.66799708,42.2600021 3.252,41.836 C3.83600292,41.4119979 4.50399624,41.096001 5.256,40.888 C6.00800376,40.679999 6.77599608,40.576 7.56,40.576 C8.45600448,40.576 9.3239958,40.7119986 10.164,40.984 C11.0040042,41.2560014 11.7599966,41.7039969 12.432,42.328 L10.224,44.656 Z M26.76,49.576 C26.76,48.2159932 26.9839978,46.9800056 27.432,45.868 C27.8800022,44.7559944 28.499996,43.8080039 29.292,43.024 C30.084004,42.2399961 31.0279945,41.6360021 32.124,41.212 C33.2200055,40.7879979 34.4239934,40.576 35.736,40.576 C37.0640066,40.5599999 38.2799945,40.755998 39.384,41.164 C40.4880055,41.572002 41.439996,42.1679961 42.24,42.952 C43.040004,43.7360039 43.6639978,44.6799945 44.112,45.784 C44.5600022,46.8880055 44.784,48.1199932 44.784,49.48 C44.784,50.8080066 44.5600022,52.0159946 44.112,53.104 C43.6639978,54.1920054 43.040004,55.1279961 42.24,55.912 C41.439996,56.6960039 40.4880055,57.3079978 39.384,57.748 C38.2799945,58.1880022 37.0640066,58.4159999 35.736,58.432 C34.4239934,58.432 33.2200055,58.2200021 32.124,57.796 C31.0279945,57.3719979 30.084004,56.7720039 29.292,55.996 C28.499996,55.2199961 27.8800022,54.2880054 27.432,53.2 C26.9839978,52.1119946 26.76,50.9040066 26.76,49.576 Z M29.928,49.384 C29.928,50.2960046 30.0679986,51.1359962 30.348,51.904 C30.6280014,52.6720038 31.0239974,53.3359972 31.536,53.896 C32.0480026,54.4560028 32.6599964,54.8959984 33.372,55.216 C34.0840036,55.5360016 34.8799956,55.696 35.76,55.696 C36.6400044,55.696 37.4399964,55.5360016 38.16,55.216 C38.8800036,54.8959984 39.4959974,54.4560028 40.008,53.896 C40.5200026,53.3359972 40.9159986,52.6720038 41.196,51.904 C41.4760014,51.1359962 41.616,50.2960046 41.616,49.384 C41.616,48.5359958 41.4760014,47.7440037 41.196,47.008 C40.9159986,46.2719963 40.5200026,45.6280028 40.008,45.076 C39.4959974,44.5239972 38.8800036,44.0920016 38.16,43.78 C37.4399964,43.4679984 36.6400044,43.312 35.76,43.312 C34.8799956,43.312 34.0840036,43.4679984 33.372,43.78 C32.6599964,44.0920016 32.0480026,44.5239972 31.536,45.076 C31.0239974,45.6280028 30.6280014,46.2719963 30.348,47.008 C30.0679986,47.7440037 29.928,48.5359958 29.928,49.384 Z M73.272,51.76 C73.272,52.7840051 73.0960018,53.7079959 72.744,54.532 C72.3919982,55.3560041 71.912003,56.0559971 71.304,56.632 C70.695997,57.2080029 69.9760042,57.6519984 69.144,57.964 C68.3119958,58.2760016 67.4080049,58.432 66.432,58.432 C65.4559951,58.432 64.5520042,58.2760016 63.72,57.964 C62.8879958,57.6519984 62.1640031,57.2080029 61.548,56.632 C60.9319969,56.0559971 60.4520017,55.3560041 60.108,54.532 C59.7639983,53.7079959 59.592,52.7840051 59.592,51.76 L59.592,41.008 L62.616,41.008 L62.616,51.664 C62.616,52.0800021 62.6799994,52.5159977 62.808,52.972 C62.9360006,53.4280023 63.1479985,53.8479981 63.444,54.232 C63.7400015,54.6160019 64.1319976,54.9319988 64.62,55.18 C65.1080024,55.4280012 65.7119964,55.552 66.432,55.552 C67.1520036,55.552 67.7559976,55.4280012 68.244,55.18 C68.7320024,54.9319988 69.1239985,54.6160019 69.42,54.232 C69.7160015,53.8479981 69.9279994,53.4280023 70.056,52.972 C70.1840006,52.5159977 70.248,52.0800021 70.248,51.664 L70.248,41.008 L73.272,41.008 L73.272,51.76 Z M88.992,41.008 L93,41.008 L101.232,53.632 L101.28,53.632 L101.28,41.008 L104.304,41.008 L104.304,58 L100.464,58 L92.064,44.968 L92.016,44.968 L92.016,58 L88.992,58 L88.992,41.008 Z M120.096,41.008 L126.792,41.008 C127.912006,41.008 128.991995,41.1799983 130.032,41.524 C131.072005,41.8680017 131.991996,42.3919965 132.792,43.096 C133.592004,43.8000035 134.231998,44.6839947 134.712,45.748 C135.192002,46.8120053 135.432,48.0639928 135.432,49.504 C135.432,50.9600073 135.156003,52.2199947 134.604,53.284 C134.051997,54.3480053 133.340004,55.2279965 132.468,55.924 C131.595996,56.6200035 130.628005,57.1399983 129.564,57.484 C128.499995,57.8280017 127.456005,58 126.432,58 L120.096,58 L120.096,41.008 Z M125.376,55.264 C126.320005,55.264 127.211996,55.1560011 128.052,54.94 C128.892004,54.7239989 129.623997,54.3880023 130.248,53.932 C130.872003,53.4759977 131.363998,52.8840036 131.724,52.156 C132.084002,51.4279964 132.264,50.5440052 132.264,49.504 C132.264,48.4799949 132.104002,47.6000037 131.784,46.864 C131.463998,46.1279963 131.020003,45.5320023 130.452,45.076 C129.883997,44.6199977 129.212004,44.2840011 128.436,44.068 C127.659996,43.8519989 126.808005,43.744 125.88,43.744 L123.12,43.744 L123.12,55.264 L125.376,55.264 Z" id="SOUND" fill="#1B2327"></path>
                <path d="M249.5,116.420305 L249.5,2.5 L164.5,2.5 L164.5,116.420305 L207,89.0930099 L249.5,116.420305 Z" id="Stroke-3673" stroke="#FFC259" stroke-width="5"></path>
                <path d="M202.688875,41.559805 L195.907323,41.559805 C194.30351,41.559805 193,42.8600151 193,44.4638275 L193,50.2751725 C193,51.8789849 194.30351,53.179195 195.907323,53.179195 L202.688875,53.179195 L216.24538,66.739 L216.24538,28 L202.688875,41.559805 Z" id="Stroke-1" stroke="#FFC259" stroke-width="3" stroke-linecap="round" stroke-linejoin="round"></path>
            </g>
        </g>
    </g>
</svg>