<?xml version="1.0" encoding="UTF-8"?>
<svg width="301px" height="121px" viewBox="0 0 301 121" version="1.1" xmlns="http://www.w3.org/2000/svg" xmlns:xlink="http://www.w3.org/1999/xlink">
    <!-- Generator: Sketch 46.1 (44463) - http://www.bohemiancoding.com/sketch -->
    <title>Group 3</title>
    <desc>Created with Sketch.</desc>
    <defs></defs>
    <g id="Page-1" stroke="none" stroke-width="1" fill="none" fill-rule="evenodd">
        <g id="Concept-5---ribbon-style" transform="translate(-261.000000, -336.000000)">
            <g id="Group-3" transform="translate(261.000000, 336.000000)">
                <path d="M211.896,44.008 L218.592,44.008 C219.712006,44.008 220.791995,44.1799983 221.832,44.524 C222.872005,44.8680017 223.791996,45.3919965 224.592,46.096 C225.392004,46.8000035 226.031998,47.6839947 226.512,48.748 C226.992002,49.8120053 227.232,51.0639928 227.232,52.504 C227.232,53.9600073 226.956003,55.2199947 226.404,56.284 C225.851997,57.3480053 225.140004,58.2279965 224.268,58.924 C223.395996,59.6200035 222.428005,60.1399983 221.364,60.484 C220.299995,60.8280017 219.256005,61 218.232,61 L211.896,61 L211.896,44.008 Z M217.176,58.264 C218.120005,58.264 219.011996,58.1560011 219.852,57.94 C220.692004,57.7239989 221.423997,57.3880023 222.048,56.932 C222.672003,56.4759977 223.163998,55.8840036 223.524,55.156 C223.884002,54.4279964 224.064,53.5440052 224.064,52.504 C224.064,51.4799949 223.904002,50.6000037 223.584,49.864 C223.263998,49.1279963 222.820003,48.5320023 222.252,48.076 C221.683997,47.6199977 221.012004,47.2840011 220.236,47.068 C219.459996,46.8519989 218.608005,46.744 217.68,46.744 L214.92,46.744 L214.92,58.264 L217.176,58.264 Z M242.04,44.008 L245.064,44.008 L245.064,61 L242.04,61 L242.04,44.008 Z M258.816,44.008 L262.296,44.008 L266.928,56.848 L271.704,44.008 L274.968,44.008 L268.104,61 L265.488,61 L258.816,44.008 Z M288.792,44.008 L300.048,44.008 L300.048,46.744 L291.816,46.744 L291.816,50.92 L299.616,50.92 L299.616,53.656 L291.816,53.656 L291.816,58.264 L300.48,58.264 L300.48,61 L288.792,61 L288.792,44.008 Z" id="DIVE" fill="#1B2327"></path>
                <path d="M7.392,44.008 L10.008,44.008 L17.328,61 L13.872,61 L12.288,57.112 L4.92,57.112 L3.384,61 L0,61 L7.392,44.008 Z M11.232,54.52 L8.616,47.608 L5.952,54.52 L11.232,54.52 Z M31.224,44.008 L37.128,44.008 C37.9440041,44.008 38.7319962,44.0839992 39.492,44.236 C40.2520038,44.3880008 40.927997,44.6479982 41.52,45.016 C42.112003,45.3840018 42.5839982,45.8799969 42.936,46.504 C43.2880018,47.1280031 43.464,47.9199952 43.464,48.88 C43.464,50.1120062 43.1240034,51.1439958 42.444,51.976 C41.7639966,52.8080042 40.7920063,53.3119991 39.528,53.488 L44.04,61 L40.392,61 L36.456,53.8 L34.248,53.8 L34.248,61 L31.224,61 L31.224,44.008 Z M36.6,51.208 C37.0320022,51.208 37.4639978,51.1880002 37.896,51.148 C38.3280022,51.1079998 38.7239982,51.0120008 39.084,50.86 C39.4440018,50.7079992 39.7359989,50.4760016 39.96,50.164 C40.1840011,49.8519984 40.296,49.4160028 40.296,48.856 C40.296,48.3599975 40.192001,47.9600015 39.984,47.656 C39.775999,47.3519985 39.5040017,47.1240008 39.168,46.972 C38.8319983,46.8199992 38.460002,46.7200002 38.052,46.672 C37.643998,46.6239998 37.2480019,46.6 36.864,46.6 L34.248,46.6 L34.248,51.208 L36.6,51.208 Z M61.392,46.744 L56.184,46.744 L56.184,44.008 L69.624,44.008 L69.624,46.744 L64.416,46.744 L64.416,61 L61.392,61 L61.392,46.744 Z" id="ART" fill="#1B2327"></path>
                <path d="M186.5,116.420305 L186.5,2.5 L101.5,2.5 L101.5,116.420305 L144,89.0930099 L186.5,116.420305 Z" id="Stroke-3673" stroke="#68E1C7" stroke-width="5"></path>
                <g id="Group" transform="translate(123.000000, 34.000000)" stroke="#68E1C7" stroke-width="3" stroke-linecap="round" stroke-linejoin="round">
                    <path d="M35,1 L0,36" id="Stroke-2608"></path>
                    <path d="M4.29054793,32 C0.86461867,28.5053724 4.4328111,17.8436458 12.9395677,9.16191182 C17.3090791,4.69507225 22.0966701,1.46721008 25,0 L25,10.9581326" id="Stroke-2609"></path>
                    <path d="M16,20 L30,20" id="Stroke-2610"></path>
                    <path d="M10.3876349,26 L26,26 C17.7536801,33.5503429 7.99116781,34.3866338 5,31.373614" id="Stroke-2611"></path>
                    <path d="M35.3831631,1 C37.9740026,3.71159144 37.3774277,9.06653952 34.1218334,15 L22,15" id="Stroke-2612"></path>
                </g>
            </g>
        </g>
    </g>
</svg>