<?xml version="1.0" encoding="UTF-8"?>
<svg width="314px" height="121px" viewBox="0 0 314 121" version="1.1" xmlns="http://www.w3.org/2000/svg" xmlns:xlink="http://www.w3.org/1999/xlink">
    <!-- Generator: Sketch 46.1 (44463) - http://www.bohemiancoding.com/sketch -->
    <title>Group 2</title>
    <desc>Created with Sketch.</desc>
    <defs></defs>
    <g id="Page-1" stroke="none" stroke-width="1" fill="none" fill-rule="evenodd">
        <g id="Concept-5---ribbon-style" transform="translate(-248.000000, -146.000000)">
            <g id="Group-2" transform="translate(248.000000, 146.000000)">
                <path d="M224.896,39.008 L231.592,39.008 C232.712006,39.008 233.791995,39.1799983 234.832,39.524 C235.872005,39.8680017 236.791996,40.3919965 237.592,41.096 C238.392004,41.8000035 239.031998,42.6839947 239.512,43.748 C239.992002,44.8120053 240.232,46.0639928 240.232,47.504 C240.232,48.9600073 239.956003,50.2199947 239.404,51.284 C238.851997,52.3480053 238.140004,53.2279965 237.268,53.924 C236.395996,54.6200035 235.428005,55.1399983 234.364,55.484 C233.299995,55.8280017 232.256005,56 231.232,56 L224.896,56 L224.896,39.008 Z M230.176,53.264 C231.120005,53.264 232.011996,53.1560011 232.852,52.94 C233.692004,52.7239989 234.423997,52.3880023 235.048,51.932 C235.672003,51.4759977 236.163998,50.8840036 236.524,50.156 C236.884002,49.4279964 237.064,48.5440052 237.064,47.504 C237.064,46.4799949 236.904002,45.6000037 236.584,44.864 C236.263998,44.1279963 235.820003,43.5320023 235.252,43.076 C234.683997,42.6199977 234.012004,42.2840011 233.236,42.068 C232.459996,41.8519989 231.608005,41.744 230.68,41.744 L227.92,41.744 L227.92,53.264 L230.176,53.264 Z M255.04,39.008 L258.064,39.008 L258.064,56 L255.04,56 L255.04,39.008 Z M271.816,39.008 L275.296,39.008 L279.928,51.848 L284.704,39.008 L287.968,39.008 L281.104,56 L278.488,56 L271.816,39.008 Z M301.792,39.008 L313.048,39.008 L313.048,41.744 L304.816,41.744 L304.816,45.92 L312.616,45.92 L312.616,48.656 L304.816,48.656 L304.816,53.264 L313.48,53.264 L313.48,56 L301.792,56 L301.792,39.008 Z" id="DIVE" fill="#1B2327"></path>
                <path d="M0.896,39.008 L11.864,39.008 L11.864,41.744 L3.92,41.744 L3.92,46.208 L11.408,46.208 L11.408,48.944 L3.92,48.944 L3.92,56 L0.896,56 L0.896,39.008 Z M26.6,39.008 L29.624,39.008 L29.624,56 L26.6,56 L26.6,39.008 Z M45.344,39.008 L48.368,39.008 L48.368,53.264 L55.592,53.264 L55.592,56 L45.344,56 L45.344,39.008 Z M69.872,39.008 L74.48,39.008 L79.016,50.912 L83.6,39.008 L88.16,39.008 L88.16,56 L85.28,56 L85.28,41.888 L85.232,41.888 L80.072,56 L77.96,56 L72.8,41.888 L72.752,41.888 L72.752,56 L69.872,56 L69.872,39.008 Z" id="FILM" fill="#1B2327"></path>
                <path d="M199.5,116.420305 L199.5,2.5 L114.5,2.5 L114.5,116.420305 L157,89.0930099 L199.5,116.420305 Z" id="Stroke-3673" stroke="#FF7F82" stroke-width="5"></path>
                <g id="Group-831" transform="translate(139.000000, 35.000000)" stroke="#FF7F82" stroke-width="3" stroke-linejoin="round">
                    <path d="M29,23.0769231 C29,24.1346154 28.13,25 27.0666667,25 L1.93333333,25 C0.87,25 0,24.1346154 0,23.0769231 L0,1.92307692 C0,0.865384615 0.87,0 1.93333333,0 L27.0666667,0 C28.13,0 29,0.865384615 29,1.92307692 L29,23.0769231 L29,23.0769231 Z" id="Stroke-795"></path>
                    <polygon id="Stroke-796" points="41 23 30 17.2727273 30 7.72727273 41 2"></polygon>
                </g>
            </g>
        </g>
    </g>
</svg>